<svg width="42" height="42" viewBox="0 0 42 42" fill="none" xmlns="http://www.w3.org/2000/svg">
<path opacity="0.4" d="M28.595 3.5H13.4225C7.49 3.5 3.5 7.665 3.5 13.86V28.1575C3.5 34.335 7.49 38.5 13.4225 38.5H28.595C34.5275 38.5 38.5 34.335 38.5 28.1575V13.86C38.5 7.665 34.5275 3.5 28.595 3.5Z" fill="white"/>
<path d="M26.2776 24.0984L23.1643 20.9869L26.2758 17.8754C26.8743 17.2786 26.8743 16.3074 26.2758 15.7106C25.6773 15.1086 24.7096 15.1104 24.1111 15.7089L20.9978 18.8204L17.8846 15.7054C17.2861 15.1069 16.3166 15.1104 15.7181 15.7054C15.1213 16.3039 15.1213 17.2751 15.7181 17.8719L18.8331 20.9869L15.7251 24.0931C15.1266 24.6916 15.1266 25.6629 15.7251 26.2579C16.0243 26.5589 16.4146 26.7076 16.8066 26.7076C17.2003 26.7076 17.5906 26.5589 17.8898 26.2596L20.9978 23.1516L24.1128 26.2649C24.4121 26.5641 24.8023 26.7129 25.1943 26.7129C25.5863 26.7129 25.9783 26.5624 26.2776 26.2649C26.8761 25.6664 26.8761 24.6969 26.2776 24.0984Z" fill="white"/>
</svg>
