<svg width="34" height="34" viewBox="0 0 34 34" fill="none" xmlns="http://www.w3.org/2000/svg">
<path opacity="0.4" d="M16.9999 31.1673C24.824 31.1673 31.1666 24.8247 31.1666 17.0007C31.1666 9.17662 24.824 2.83398 16.9999 2.83398C9.17588 2.83398 2.83325 9.17662 2.83325 17.0007C2.83325 24.8247 9.17588 31.1673 16.9999 31.1673Z" fill="#868686"/>
<path d="M18.5019 16.9998L21.7603 13.7414C22.1711 13.3306 22.1711 12.6506 21.7603 12.2398C21.3494 11.8289 20.6694 11.8289 20.2586 12.2398L17.0003 15.4981L13.7419 12.2398C13.3311 11.8289 12.6511 11.8289 12.2403 12.2398C11.8294 12.6506 11.8294 13.3306 12.2403 13.7414L15.4986 16.9998L12.2403 20.2581C11.8294 20.6689 11.8294 21.3489 12.2403 21.7598C12.4528 21.9723 12.7219 22.0714 12.9911 22.0714C13.2603 22.0714 13.5294 21.9723 13.7419 21.7598L17.0003 18.5014L20.2586 21.7598C20.4711 21.9723 20.7403 22.0714 21.0094 22.0714C21.2786 22.0714 21.5478 21.9723 21.7603 21.7598C22.1711 21.3489 22.1711 20.6689 21.7603 20.2581L18.5019 16.9998Z" fill="#868686"/>
</svg>
