<svg width="30" height="30" viewBox="0 0 30 30" fill="none" xmlns="http://www.w3.org/2000/svg">
<path opacity="0.4" d="M15 27.5C21.9036 27.5 27.5 21.9036 27.5 15C27.5 8.09644 21.9036 2.5 15 2.5C8.09644 2.5 2.5 8.09644 2.5 15C2.5 21.9036 8.09644 27.5 15 27.5Z" fill="white"/>
<path d="M19.4123 14.9625C19.0498 14.6 18.4498 14.6 18.0873 14.9625L15.9373 17.1125V10.625C15.9373 10.1125 15.5123 9.6875 14.9998 9.6875C14.4873 9.6875 14.0623 10.1125 14.0623 10.625V17.1125L11.9123 14.9625C11.5498 14.6 10.9498 14.6 10.5873 14.9625C10.2248 15.325 10.2248 15.925 10.5873 16.2875L14.3373 20.0375C14.5248 20.225 14.7623 20.3125 14.9998 20.3125C15.2373 20.3125 15.4748 20.225 15.6623 20.0375L19.4123 16.2875C19.7748 15.925 19.7748 15.325 19.4123 14.9625Z" fill="white"/>
</svg>
