<svg width="22" height="21" viewBox="0 0 22 21" fill="none" xmlns="http://www.w3.org/2000/svg">
<g clip-path="url(#clip0_248_7321)">
<path d="M21.1539 10.0982V10.9032C21.1494 10.9317 21.1433 10.959 21.1405 10.9886C21.1221 11.2212 21.1093 11.4538 21.0847 11.6854C20.9956 12.5321 20.798 13.3638 20.4966 14.1601C19.6813 16.3127 18.3124 18.0235 16.39 19.2925C14.9167 20.2651 13.2176 20.8415 11.4565 20.9661L11.0565 20.9979H10.2513C10.2167 20.9935 10.1827 20.9884 10.1481 20.9845C9.70175 20.9349 9.24701 20.907 8.80287 20.8317C7.74126 20.651 6.71588 20.2999 5.76644 19.7918C3.98528 18.8589 2.51144 17.4316 1.52203 15.6814C0.785321 14.3952 0.334841 12.9652 0.201336 11.489C0.110553 10.5388 0.149784 9.58064 0.317948 8.64104C0.538508 7.39006 0.988744 6.19071 1.6459 5.10357C2.61343 3.48394 4.0017 2.15662 5.66322 1.26262C6.90244 0.587441 8.26713 0.173885 9.67273 0.0475731C10.9399 -0.070138 12.1925 0.017448 13.415 0.370581C16.6835 1.31729 18.9974 3.36636 20.3538 6.48431C20.7647 7.4452 21.0183 8.46596 21.1048 9.50742C21.1227 9.70435 21.1377 9.90128 21.1539 10.0982ZM13.9417 4.33482C13.3988 4.31362 12.8632 4.29019 12.3275 4.2729C12.0153 4.26264 11.7032 4.29721 11.4007 4.37555C10.667 4.56578 10.1007 4.97526 9.74304 5.65252C9.48637 6.13843 9.39599 6.66283 9.39431 7.20619C9.39431 7.70828 9.39431 8.21483 9.39431 8.7197V8.82291H7.51119V11.065H9.39598V16.7235H11.6373V11.0605H13.5243C13.6181 10.3113 13.7107 9.5699 13.8033 8.81789H11.6334C11.6334 8.40618 11.6334 8.00395 11.6334 7.60173C11.6334 7.4472 11.6368 7.29211 11.6524 7.13925C11.6926 6.75599 11.9051 6.51276 12.279 6.42517C12.4034 6.39475 12.5309 6.3781 12.6589 6.37552C13.0557 6.36883 13.4524 6.37217 13.8485 6.37162H13.9406L13.9417 4.33482Z" fill="#838383"/>
</g>
<defs>
<clipPath id="clip0_248_7321">
<rect width="21" height="21" fill="white" transform="translate(0.15387)"/>
</clipPath>
</defs>
</svg>
