<svg width="221" height="354" viewBox="0 0 221 354" fill="none" xmlns="http://www.w3.org/2000/svg">
<path d="M116.764 131.702L115.109 128.535C115.109 128.535 116.584 121.336 110.393 118.097C110.393 118.097 107.766 117.017 107.874 119.464C107.982 121.912 108.234 120.976 108.342 124.432C108.45 127.887 109.817 131.09 111.725 132.062L113.417 134.114L116.764 131.702Z" fill="#F2AC8C"/>
<path d="M205.381 341.474C204.697 343.742 201.602 345.253 201.206 347.989C200.99 349.321 200.486 350.401 199.874 351.084H190.228C190.336 350.544 190.731 349.969 191.991 349.717C194.655 349.141 195.663 345.901 195.519 342.878C195.447 341.618 195.483 340.178 195.555 338.918C195.627 337.191 195.771 335.823 195.771 335.823L201.458 334.491L202.07 335.247L202.645 335.967C202.609 336.039 206.029 339.206 205.381 341.474Z" fill="#20496C"/>
<path d="M160.533 351.12H141.024C141.456 350.616 142.212 350.112 143.472 349.896C146.459 349.392 151.678 347.665 152.83 343.849C152.866 343.741 152.902 343.597 152.938 343.489C153.874 339.386 160.533 344.749 160.533 344.749C160.533 344.749 160.569 344.929 160.569 345.181C160.713 346.297 160.965 349.428 160.533 351.12Z" fill="#20496C"/>
<path d="M144.299 242.562C144.299 242.562 145.307 255.232 146.495 270.458C148.115 291.154 150.058 316.566 150.274 321.389C150.598 329.74 151.93 343.129 151.93 343.129C151.93 343.129 155.097 346.297 161.468 344.965C161.468 344.965 167.119 325.852 168.739 305.66C168.775 305.336 168.775 305.012 168.811 304.652C170.323 284.099 172.662 240.763 172.662 240.763L144.299 242.562Z" fill="#F5BF67"/>
<path d="M148.907 244.075C148.907 244.075 167.228 289.967 179.25 311.563C191.307 333.123 195.051 339.17 195.051 339.17C195.051 339.17 201.962 336.399 202.574 334.527C202.574 334.527 197.966 292.882 189.904 282.732C185.333 277.009 180.005 259.768 179.753 253.757C179.502 247.746 178.134 235.832 178.134 235.832L148.907 244.075Z" fill="#F5BF67"/>
<path d="M157.546 172.447C156.682 166.796 156.502 160.173 156.502 160.173L165.788 154.738C165.572 166.832 172.267 172.735 172.267 172.735C172.267 172.735 159.957 179.718 152.758 176.982C152.758 176.982 154.486 174.355 157.546 172.447Z" fill="#E2A188"/>
<path d="M150.275 159.885C150.275 159.885 160.101 166.76 164.276 160.569C168.451 154.378 175.902 151.499 169.819 146.819C163.736 142.176 157.545 143.328 155.638 145.056C153.73 146.819 147.827 157.942 150.275 159.885Z" fill="#F2AC8C"/>
<path d="M114.245 131.378C115.648 129.362 115.864 129.074 115.864 129.074C115.864 129.074 129.866 146.531 131.234 148.151C132.602 149.771 156.502 165.428 156.502 165.428L156.25 189.256C156.25 189.256 127.023 161.721 123.603 157.509C117.952 150.599 112.373 134.041 112.373 134.041C112.373 134.041 112.841 133.357 114.245 131.378Z" fill="#3D87D1"/>
<path d="M179.537 238.135C179.573 238.927 177.954 239.791 177.234 240.115C171.907 242.49 166.976 244.146 161.397 244.686C154.774 245.37 146.927 243.858 144.228 243.894C143.94 243.894 143.688 243.786 143.472 243.606C143.292 243.462 143.148 235.364 143.292 225.141C143.292 224.746 143.292 224.314 143.328 223.918V223.774C143.328 222.694 143.364 221.614 143.364 220.534C143.436 217.547 143.544 214.487 143.688 211.428C143.868 206.929 144.156 202.537 144.515 198.614C144.911 194.547 145.379 190.983 146.027 188.5C147.467 182.741 150.742 178.925 153.766 176.118L156.249 173.922C158.733 174.426 161.325 174.282 163.952 172.986C166.796 171.583 169.855 170.071 170.359 170.431C174.174 173.274 176.766 179.753 178.062 187.996C178.782 192.423 179.106 197.354 179.106 202.537C179.106 204.517 179.034 206.533 178.926 208.548C178.278 219.418 178.926 228.849 179.322 234.356C179.43 236.012 179.537 237.271 179.537 238.135Z" fill="#4C94ED"/>
<path d="M170.647 187.853C170.647 187.853 164.924 214.596 143.4 220.535C143.472 217.547 143.58 214.488 143.724 211.429C143.904 206.929 144.192 202.538 144.552 198.615C144.948 198.399 145.308 198.255 145.632 198.147C152.902 195.807 170.647 187.853 170.647 187.853Z" fill="#4A94ED"/>
<path d="M125.331 122.2L124.755 118.528C124.755 118.528 128.319 112.481 123.531 106.758C123.531 106.758 121.408 104.599 120.796 106.902C120.148 109.242 120.652 108.45 119.716 111.726C118.744 115.001 119.068 118.564 120.544 120.328L121.48 122.992L125.331 122.2Z" fill="#F2AC8C"/>
<path d="M123.064 120.219C125.223 119.391 125.871 120.651 125.871 120.651C125.871 120.651 135.338 146.315 136.381 148.438C137.425 150.562 158.266 165.14 158.266 165.14C158.266 165.14 166.796 170.575 166.472 177.162C166.22 182.885 163.161 185.98 160.029 187.636C156.286 189.615 151.895 188.608 149.015 185.116C142.5 177.306 129.579 161.648 127.671 157.653C123.388 148.726 120.328 122.235 120.328 122.235C120.328 122.235 121.372 120.867 123.064 120.219Z" fill="#4C94ED"/>
<path d="M157.006 140.196C156.25 141.024 155.998 142.284 156.538 143.256C156.934 143.976 157.654 144.407 158.445 144.659C159.525 145.019 160.749 145.019 161.829 144.695C162.009 146.099 162.261 147.575 163.053 148.763C164.096 150.346 165.968 151.21 167.444 152.434C168.02 152.938 168.596 153.478 168.848 154.198C168.956 154.45 169.028 154.738 168.884 154.99C168.74 155.314 168.308 155.422 167.948 155.422C167.588 155.422 167.228 155.314 166.868 155.386C166.184 155.494 165.716 156.177 165.428 156.825C165.068 157.689 164.852 158.589 164.78 159.525C164.744 160.101 164.816 160.713 165.068 161.253C165.284 161.684 165.644 162.008 166.004 162.332C166.976 163.16 168.128 163.844 169.352 164.24C169.927 163.304 169.388 161.9 170.143 161.109C170.827 160.425 171.979 160.785 172.951 160.641C174.319 160.461 175.363 159.273 175.902 158.013C176.442 156.825 176.622 155.422 176.298 154.162C175.974 152.902 175.039 151.75 173.779 151.318C175.614 149.986 176.262 149.807 176.658 147.575C176.802 146.783 177.378 143.976 175.471 141.888C174.859 141.204 173.743 141.096 172.843 141.24C172.159 139.692 171.115 138.288 169.783 137.281C168.416 136.273 166.688 136.093 165.176 135.337C163.737 134.617 160.893 135.373 160.137 137.137C159.957 137.533 159.921 138.576 159.561 138.864C158.805 139.476 157.726 139.404 157.006 140.196Z" fill="#245386"/>
<path d="M72.8521 174.318L75.4436 173.634C75.4436 173.634 77.0993 167.839 83.3982 170.755C83.3982 170.755 85.9538 172.158 84.91 173.634C83.8302 175.11 84.0101 174.318 82.5704 176.442C81.1306 178.565 78.755 179.501 76.8114 178.601L74.6157 178.565L72.8521 174.318Z" fill="#FFB792"/>
<path d="M75.6953 176.657C75.2633 174.318 74.1115 173.67 74.1115 173.67C74.1115 173.67 49.9597 180.005 47.764 180.833C46.2523 181.409 27.6795 185.512 17.5292 186.376C12.49 186.808 11.3023 190.947 9.68253 195.482L8.35076 199.226C6.73103 203.725 11.3382 208.476 16.1254 207.252C29.6591 203.797 48.232 195.23 51.9033 193.79C60.9738 190.119 75.5153 180.689 75.5153 180.689C75.5153 180.689 76.0552 178.673 75.6953 176.657Z" fill="#F5BF67"/>
<path d="M81.2384 337.874C81.2384 337.874 85.5576 341.761 92.8284 340.574C92.8284 340.574 98.6594 339.782 99.6672 342.733C99.6672 342.733 90.4888 346.405 88.1852 347.412C86.4215 348.168 84.5498 349.464 83.218 350.472C82.1742 351.264 80.6625 351.012 79.9066 349.932C79.5467 349.428 79.1867 348.816 78.7548 348.132C77.567 346.189 74.9395 339.962 74.9395 339.962L81.2384 337.874Z" fill="#245386"/>
<path d="M83.5419 336.471C83.5419 336.471 80.1225 342.734 73.7516 340.934C73.7516 340.934 61.4417 328.768 53.379 316.566C50.7515 312.607 48.5558 308.647 47.404 305.084C42.6169 290.542 28.1833 268.226 18.7529 256.744L45.5324 249.689C45.5324 249.689 52.3352 267.146 61.5496 288.671C68.1725 304.148 76.0552 321.785 83.5419 336.471Z" fill="#4C94ED"/>
<path d="M61.5135 288.671L53.3429 316.602C50.7153 312.643 48.5197 308.684 47.3679 305.12C42.5807 290.579 28.1472 268.262 18.7168 256.78L45.4962 249.726C45.4962 249.69 52.3351 267.147 61.5135 288.671Z" fill="#4C94ED"/>
<path d="M35.706 337.515C35.706 337.515 34.9501 342.662 41.177 343.922C41.177 343.922 44.7764 344.246 44.4885 347.557L26.2036 345.973C26.2036 345.973 25.8077 344.605 25.9156 341.726C26.0236 339.53 28.7591 333.987 28.7591 333.987L35.706 337.515Z" fill="#245386"/>
<path d="M37.0016 248.933C37.0016 248.933 47.4038 262.647 52.6949 286.187C55.5744 299 41.4649 329.271 38.2974 339.926C38.2974 339.926 30.6667 339.89 25.6635 337.406C25.6635 337.406 27.2833 314.91 31.8545 297.885C34.4101 288.346 18.5008 275.82 12.6698 257.644C8.71043 245.298 14.7934 246.054 22.3521 246.413L37.0016 248.933Z" fill="#4C94ED"/>
<path d="M28.7592 191.127C21.9924 194.187 9.14258 189.651 9.14258 189.651C9.14258 189.651 15.0456 184.036 13.4978 173.958L18.321 176.982L23.5041 180.221C23.5041 180.221 23.6841 181.985 23.6481 185.116C23.6481 185.908 23.6121 186.844 23.5761 187.816C26.7436 189.111 28.7592 191.127 28.7592 191.127Z" fill="#FFB792"/>
<path d="M47.2958 249.186C47.1878 250.302 45.856 250.734 45.5681 250.77C42.9405 251.022 35.4538 253.181 28.8669 253.253C23.3239 253.325 18.2847 252.317 12.7777 250.698C12.0578 250.482 10.3661 249.87 10.2941 249.15C10.2221 248.358 -7.3789 203.51 10.942 186.557C11.3739 186.161 14.5774 187.241 17.5288 188.212C20.2644 189.112 22.82 188.968 25.1955 188.284L27.8951 190.012C31.1705 192.244 37.1455 199.694 37.4335 205.165C37.5774 207.937 38.9452 210.097 39.1972 212.544C39.2691 213.444 39.3771 214.344 39.4851 215.208C39.6651 216.899 39.881 218.519 40.133 220.067C40.7449 224.242 41.4648 227.842 42.2206 230.937C43.0125 234.248 43.8404 237.02 44.5962 239.324C45.5681 242.347 46.3959 244.615 46.8998 246.306C47.1878 247.53 47.3678 248.466 47.2958 249.186Z" fill="#F5BF67"/>
<path d="M46.8282 246.306C17.8172 229.316 9.79053 200.989 9.79053 200.989C9.79053 200.989 33.5825 212.255 39.4135 215.171C39.5935 216.863 39.8094 218.482 40.0614 220.03C40.6733 224.205 41.3931 227.805 42.149 230.9C42.9409 234.212 43.7687 236.983 44.5246 239.287C45.4964 242.31 46.3243 244.578 46.8282 246.306Z" fill="#F5BF67"/>
<path d="M78.4666 178.71C76.9549 176.442 76.271 175.398 76.271 175.398C76.271 175.398 51.2913 182.021 48.9517 182.849C47.3679 183.425 30.8467 188.536 20.3365 189.256C15.1174 189.616 10.5462 192.819 8.45856 197.535L6.73084 201.422C4.6432 206.137 8.92647 211.176 13.9656 209.989C28.1832 206.605 48.0878 197.967 51.9751 196.491C61.6575 192.855 79.3305 182.093 79.3305 182.093C79.3305 182.093 79.6544 180.51 78.4666 178.71Z" fill="#FFC97B"/>
<path d="M23.6118 185.116C17.2768 184.9 13.6055 179.321 13.6055 179.321C13.6055 179.321 16.593 177.989 18.2847 176.981L23.4678 180.221C23.4678 180.221 23.6478 181.985 23.6118 185.116Z" fill="#FFB792"/>
<path d="M26.8876 178.854C26.8876 178.854 16.7013 184.865 13.03 178.458C9.39458 172.051 5.61523 168.523 11.9501 164.42C18.3211 160.317 20.9846 162.044 22.7123 163.88C24.476 165.716 29.4432 177.126 26.8876 178.854Z" fill="#FFB792"/>
<path d="M24.2599 158.517C24.1159 156.177 23.504 154.485 23.504 154.485C23.504 154.485 22.6761 156.933 18.1769 156.177C13.6417 155.421 6.37091 155.565 3.4914 160.532C3.31143 160.856 3.13147 161.18 2.98749 161.504C2.66355 160.316 2.69954 158.589 2.69954 158.589C1.61972 160.748 2.23162 163.628 2.23162 163.628C2.19562 163.7 2.19563 163.772 2.15963 163.88C1.07982 164.636 0 167.191 0 167.191C0.359939 166.471 1.15181 166.075 1.83569 165.823C1.43976 169.855 2.73553 173.958 5.50706 175.362C9.53837 177.449 9.64636 176.154 13.6057 179.321C13.6057 179.321 14.8655 178.025 14.1816 177.018C13.4977 176.01 10.6902 174.354 12.4539 173.13C14.2176 171.906 14.6855 173.49 15.3694 172.626C16.0533 171.726 13.2817 168.703 17.385 166.507C21.4883 164.24 24.4038 160.856 24.2599 158.517Z" fill="#245386"/>
<path d="M131.63 199.838C130.91 197.895 129.506 195.195 126.914 193.755C123.315 191.776 106.362 179.358 102.51 176.01C100.603 171.115 97.6873 154.99 97.6873 154.99C97.6873 154.99 98.7311 152.938 98.8751 151.175C99.487 149.519 98.8391 147.395 97.2554 145.704C95.3477 143.688 96.1396 144.084 94.8078 142.608C93.476 141.168 91.6043 143.328 91.6043 143.328C88.1129 148.079 91.7123 151.067 92.7921 151.859C93.0081 152.902 93.1521 153.73 93.296 154.342L93.332 154.846H93.404C93.548 155.53 93.62 155.854 93.62 155.854C93.62 155.854 93.9799 173.995 96.4275 181.05C99.235 187.061 119.356 206.101 129.938 203.222C131.378 202.862 132.133 201.278 131.63 199.838Z" fill="#EAA281"/>
<path d="M122.775 334.06C122.775 334.06 122.2 341.15 122.667 343.49C122.919 344.714 124.287 347.269 123.639 348.421C123.027 349.573 122.308 349.861 122.308 349.861L106.146 350.113C105.282 350.113 105.858 349.573 106.542 349.033C107.694 348.169 108.63 347.629 112.373 345.83C112.625 345.722 113.489 345.146 113.813 344.966C114.605 344.462 115.433 343.706 116.117 342.914C117.268 341.618 117.376 335.355 117.376 335.355L122.775 334.06Z" fill="#F7A491"/>
<path d="M110.142 239.611C110.142 239.611 108.09 251.165 109.458 258.724C110.79 266.283 117.197 336.399 117.197 336.399L124.323 336.795C124.323 336.795 125.835 307.496 125.547 303.428C125.295 299.361 123.172 292.558 123.172 292.558L123.892 268.91L114.893 237.848L110.142 239.611Z" fill="#245386"/>
<path d="M126.555 189.185C126.555 189.185 131.486 189.76 134.402 192.928C137.353 196.131 129.65 221.831 129.111 225.934C128.571 230.002 133.502 239.504 133.502 239.504C133.502 239.504 115.109 242.887 110.142 239.612C110.142 239.612 109.602 210.313 110.142 207.433C110.682 204.518 115.145 192.712 116.189 191.524C117.269 190.336 126.555 189.185 126.555 189.185Z" fill="#245386"/>
<path d="M124.071 179.25C124.071 179.25 124.107 179.466 124.179 179.826C124.503 181.626 125.799 187.529 126.663 189.149C127.707 191.128 123.099 197.391 118.672 196.635C117.34 196.419 119.788 190.876 119.68 190.301C119.464 189.185 119.14 187.637 118.852 186.089C118.672 185.189 118.492 184.29 118.348 183.462C117.88 181.05 117.484 179.106 117.484 179.106L124.071 179.25Z" fill="#F7A491"/>
<path d="M124.179 179.862C124.107 179.502 124.071 179.286 124.071 179.286L117.412 179.106C117.412 179.106 117.808 181.05 118.276 183.462C118.456 184.29 118.636 185.189 118.78 186.089C119.824 185.945 120.868 185.441 121.947 184.506C123.135 183.498 123.891 182.238 124.359 180.942C124.323 180.51 124.251 180.15 124.179 179.862Z" fill="#F47458"/>
<path d="M124.107 163.772C124.107 163.772 126.159 166.868 126.987 170.107C127.85 173.347 126.627 181.805 120.076 183.893C113.489 185.981 109.71 179.07 111.149 173.851C112.589 168.632 117.232 160.677 124.107 163.772Z" fill="#EAA281"/>
<path d="M145.343 333.736C145.343 333.736 145.919 340.827 146.747 343.059C147.179 344.247 148.943 346.55 148.511 347.774C148.079 349.034 147.431 349.43 147.431 349.43L131.522 352.273C130.658 352.417 131.126 351.769 131.738 351.157C132.746 350.114 133.574 349.43 136.957 347.054C137.173 346.91 137.965 346.19 138.253 345.974C138.973 345.362 139.656 344.462 140.196 343.599C141.132 342.123 140.232 335.932 140.232 335.932L145.343 333.736Z" fill="#F7A491"/>
<path d="M110.069 239.72C110.069 239.72 117.484 254.262 120.04 261.497C122.559 268.731 140.196 336.904 140.196 336.904L147.287 336.148C147.287 336.148 144.048 306.993 143.148 303.034C142.212 299.074 139.044 292.667 139.044 292.667C139.044 292.667 144.983 271.035 142.824 258.797C140.664 246.559 133.465 239.36 133.465 239.36L110.069 239.72Z" fill="#245386"/>
<path d="M121.444 161.289C124.035 160.461 126.951 160.425 129.327 161.757C131.774 163.089 133.286 165.68 134.33 168.272C135.733 171.835 136.345 175.687 136.201 179.538C136.057 182.705 135.194 186.197 132.53 187.961C130.946 189.04 128.931 189.328 127.023 189.148C125.115 188.968 123.316 188.321 121.516 187.637C120.292 187.169 119.068 186.665 118.096 185.801C117.557 185.297 117.089 184.721 116.765 184.037C118.168 184.361 119.68 184.073 120.94 183.425C122.236 182.777 123.316 181.77 124.251 180.69C125.547 179.214 126.663 177.378 126.447 175.435C126.411 175.219 124.899 174.391 124.647 174.211C124.035 173.707 123.46 173.167 122.956 172.591C121.912 171.439 121.084 170.108 120.472 168.704C119.356 166.22 118.024 162.369 121.444 161.289Z" fill="#F5BF67"/>
<path d="M124.935 176.731C124.143 177.918 124.107 179.286 124.863 179.79C125.619 180.294 126.879 179.79 127.671 178.602C128.462 177.414 128.498 176.047 127.742 175.543C126.987 175.003 125.727 175.543 124.935 176.731Z" fill="#EAA281"/>
<path d="M110.105 236.66C110.105 236.66 116.008 241.268 131.414 234.933L133.465 239.36C133.465 239.36 121.371 249.582 109.781 241.951L110.105 236.66Z" fill="#4C94ED"/>
<path d="M112.949 344.821C112.949 344.821 115.468 346.621 115.108 348.061C115.108 348.061 122.811 348.457 122.919 344.317C122.919 344.317 124.467 345.541 124.467 347.341C124.467 349.141 123.387 350.94 123.387 350.94H105.03C105.03 350.94 101.071 349.501 112.949 344.821Z" fill="#4C94ED"/>
<path d="M137.389 346.153C137.389 346.153 140.16 347.557 140.016 349.033C140.016 349.033 147.683 348.241 147.179 344.138C147.179 344.138 148.907 345.11 149.159 346.909C149.446 348.673 148.655 350.617 148.655 350.617L130.514 353.424C130.478 353.424 126.338 352.596 137.389 346.153Z" fill="#4C94ED"/>
<path d="M148.438 35.9225L14.7211 331.18C14.0373 332.728 12.2016 333.412 10.6538 332.728L10.3659 332.584C8.81815 331.9 8.13427 330.064 8.81815 328.517L142.535 33.259C143.219 31.7112 145.055 31.0273 146.603 31.7112L146.891 31.8552C148.438 32.5751 149.122 34.3748 148.438 35.9225Z" fill="#245386"/>
<path d="M133.429 196.599C132.709 194.656 131.306 191.956 128.714 190.516C125.115 188.537 108.162 176.119 104.31 172.771C102.403 167.876 99.4871 151.751 99.4871 151.751C99.4871 151.751 100.531 149.699 100.675 147.935C101.287 146.28 100.639 144.156 99.0552 142.464C97.1475 140.449 97.9394 140.845 96.6076 139.369C95.2758 137.929 93.4041 140.089 93.4041 140.089C89.9127 144.84 93.5121 147.827 94.5919 148.619C94.8079 149.663 94.9519 150.491 95.0958 151.103L95.1318 151.607H95.2038C95.3478 152.291 95.4198 152.615 95.4198 152.615C95.4198 152.615 95.7797 170.756 98.2273 177.81C101.035 183.821 121.155 202.862 131.738 199.983C133.177 199.623 133.933 198.039 133.429 196.599Z" fill="#FFB792"/>
<path d="M148.583 35.9941C148.583 35.9941 186.736 46.7923 183.497 61.9097C180.258 77.0271 220.571 86.3855 220.571 86.3855L197.175 125.979C197.175 125.979 160.821 114.461 159.381 104.382C157.941 94.3042 126.807 83.686 126.807 83.686L148.583 35.9941Z" fill="#F5BF67"/>
<path d="M186.34 90.1293C186.664 88.5816 185.908 86.4939 184.648 85.5221C183.713 84.8022 182.669 84.4783 181.625 84.5143C181.049 84.5143 180.653 83.9024 180.905 83.3985L183.749 77.4235C184.18 76.5596 183.785 75.5158 182.921 75.0839L162.152 65.1856C161.288 64.7896 160.281 65.1496 159.885 65.9774L149.986 86.7099C149.698 87.2858 149.77 87.9697 150.13 88.4736L149.842 88.3656L150.526 88.9055C150.598 88.9775 150.706 89.0135 150.814 89.0855L151.282 89.3015L156.609 91.857C157.365 92.217 158.229 91.641 158.157 90.8132C158.121 90.0213 158.265 89.1935 158.661 88.4376C159.741 86.278 162.368 85.3061 164.6 86.242C167.083 87.2858 168.199 90.1653 167.047 92.5769C166.615 93.4767 165.932 94.1966 165.104 94.6285C164.78 94.8085 164.672 95.1685 164.744 95.4564L164.384 95.3844L164.996 95.8523C165.032 95.8883 165.104 95.9243 165.14 95.9603L171.511 98.9838C172.374 99.4157 173.418 99.0198 173.85 98.1559L176.694 92.217C176.946 91.6771 177.702 91.6051 178.061 92.073C178.493 92.6129 179.069 93.0808 179.717 93.4048C182.381 94.6645 185.656 93.1888 186.34 90.1293Z" fill="#F0F1F0"/>
<path d="M62.7378 116.691H43.913C43.913 116.691 37.758 123.17 38.5859 132.673C38.5859 132.673 40.3136 130.693 41.7174 129.685C41.9693 129.505 42.3292 129.721 42.2573 130.009C41.9333 132.169 42.2213 138.612 53.3074 149.554C64.3935 138.612 64.6814 132.133 64.3575 130.009C64.3215 129.685 64.6454 129.469 64.8974 129.685C66.3012 130.693 68.0289 132.673 68.0289 132.673C68.8927 123.134 62.7378 116.691 62.7378 116.691Z" fill="#F5BF67"/>
<path d="M53.2717 109.349C53.2717 109.349 41.2137 118.923 53.2717 135.408C65.3296 118.923 53.2717 109.349 53.2717 109.349Z" fill="#FFE697"/>
<path d="M53.2717 115.468C53.2717 115.468 46.0729 121.191 53.2717 131.053C60.4705 121.191 53.2717 115.468 53.2717 115.468Z" fill="white"/>
<path d="M39.7378 112.372L41.1056 115C41.6815 116.115 42.8333 116.835 44.129 116.835H53.1995H62.27C63.5297 116.835 64.6815 116.115 65.2934 115L66.6612 112.372H39.7378Z" fill="#4C94ED"/>
<path d="M35.8862 107.369L37.6499 110.753C38.4058 112.192 39.8816 113.092 41.5373 113.092H53.1993H53.2353H64.9333C66.553 113.092 68.0647 112.192 68.8206 110.753L70.5843 107.369H35.8862Z" fill="#3D87D1"/>
<path d="M69.9366 81.3096C69.9366 81.3096 99.4516 91.4598 97.5799 121.083C97.5799 121.083 72.7441 95.7791 59.2104 101.178L69.9366 81.3096Z" fill="#245386"/>
<path d="M36.714 81.3096C36.714 81.3096 7.19907 91.4598 9.07075 121.083C9.07075 121.083 33.9065 95.7791 47.4402 101.178L36.714 81.3096Z" fill="#245386"/>
<path d="M67.5251 24.6198C64.1056 16.0533 59.4624 7.66669 53.1995 0C47.0086 7.5947 42.3654 15.8733 38.9819 24.3678C45.6048 22.7841 55.6111 21.7043 67.5251 24.6198Z" fill="#F5BF67"/>
<path d="M67.9207 25.6274L67.5247 24.6195C51.7594 20.5522 38.9456 24.3676 38.9456 24.3676L38.4417 25.6274C25.4119 59.3896 31.3149 96.0674 33.4026 106.398C33.7265 108.053 35.2023 109.241 36.894 109.241H39.1256H67.4168H69.3964C71.0881 109.241 72.5639 108.053 72.8878 106.398C75.0475 96.0674 80.9505 59.3896 67.9207 25.6274Z" fill="#4C94ED"/>
<path d="M52.6232 63.9974C59.3025 63.9974 64.7172 58.5828 64.7172 51.9035C64.7172 45.2242 59.3025 39.8096 52.6232 39.8096C45.9439 39.8096 40.5293 45.2242 40.5293 51.9035C40.5293 58.5828 45.9439 63.9974 52.6232 63.9974Z" fill="#245386"/>
<path d="M56.701 61.0411C61.4298 59.1074 63.6956 53.7064 61.7619 48.9776C59.8282 44.2488 54.4272 41.983 49.6984 43.9167C44.9697 45.8504 42.7038 51.2514 44.6375 55.9802C46.5712 60.7089 51.9722 62.9748 56.701 61.0411Z" fill="#C1DDF7"/>
<path d="M52.6228 61.0815C57.6919 61.0815 61.8012 56.9722 61.8012 51.903C61.8012 46.8339 57.6919 42.7246 52.6228 42.7246C47.5537 42.7246 43.4443 46.8339 43.4443 51.903C43.4443 56.9722 47.5537 61.0815 52.6228 61.0815Z" fill="#F0F1F0"/>
<g opacity="0.08">
<path d="M53.1987 44.3095C56.8341 44.3095 59.9655 46.4331 61.4413 49.4926C60.3615 45.6052 56.8341 42.7617 52.6228 42.7617C47.5476 42.7617 43.4443 46.865 43.4443 51.9402C43.4443 53.3799 43.7683 54.7117 44.3802 55.9355C44.1642 55.1436 44.0562 54.3517 44.0562 53.4879C44.0202 48.4128 48.1235 44.3095 53.1987 44.3095Z" fill="#A1BDD6"/>
</g>
<path d="M53.3431 84.9814C43.4448 107.478 53.3431 126.95 53.3431 126.95C53.3431 126.95 63.2054 107.514 53.3431 84.9814Z" fill="#245386"/>
</svg>
