<svg width="21" height="21" viewBox="0 0 21 21" fill="none" xmlns="http://www.w3.org/2000/svg">
<path d="M10.5 0C4.70096 0 0 4.70097 0 10.5C0 16.299 4.70096 21 10.5 21C16.299 21 21 16.299 21 10.5C21 4.70097 16.2989 0 10.5 0ZM7.69856 15.5763H5.39319V8.12824H7.69856V15.5763ZM6.53489 7.15286C5.78198 7.15286 5.17161 6.53752 5.17161 5.77857C5.17161 5.01955 5.78206 4.40424 6.53489 4.40424C7.28772 4.40424 7.89808 5.01955 7.89808 5.77857C7.89813 6.53756 7.28776 7.15286 6.53489 7.15286ZM16.338 15.5763H14.0438V11.6667C14.0438 10.5944 13.6365 9.99582 12.7886 9.99582C11.8658 9.99582 11.3837 10.6192 11.3837 11.6667V15.5763H9.17259V8.12824H11.3837V9.13136C11.3837 9.13136 12.0488 7.90105 13.6281 7.90105C15.2074 7.90105 16.338 8.86538 16.338 10.8603L16.338 15.5763Z" fill="#838383"/>
</svg>
