<svg width="129" height="30" viewBox="0 0 129 30" fill="none" xmlns="http://www.w3.org/2000/svg">
<path d="M0 0.66864H6.09767V14.6166L5.25787 16.2597V20.7873L6.09767 22.4669V28.7837H0V0.66864ZM3.9434 18.414C4.33288 16.1988 5.05097 14.2758 6.09767 12.6449C7.14438 10.9896 8.44667 9.71169 10.0046 8.81104C11.5625 7.91039 13.3151 7.46006 15.2624 7.46006C17.2828 7.46006 19.072 7.92256 20.6298 8.84755C22.1877 9.74821 23.4048 11.0262 24.2811 12.6814C25.1575 14.3123 25.5956 16.2232 25.5956 18.414C25.5956 20.5804 25.1575 22.4912 24.2811 24.1465C23.4048 25.7774 22.1877 27.0554 20.6298 27.9804C19.072 28.881 17.2828 29.3313 15.2624 29.3313C13.3151 29.3313 11.5625 28.881 10.0046 27.9804C8.44667 27.0797 7.14438 25.8139 6.09767 24.183C5.07531 22.5278 4.35722 20.6047 3.9434 18.414ZM19.3884 18.414C19.3884 17.1969 19.1328 16.1258 18.6216 15.2008C18.1348 14.2515 17.4532 13.5212 16.5769 13.01C15.7006 12.4745 14.7026 12.2067 13.5828 12.2067C12.4388 12.2067 11.3555 12.4745 10.3332 13.01C9.31082 13.5212 8.41016 14.2515 7.63122 15.2008C6.87662 16.1258 6.28024 17.1969 5.84208 18.414C6.28024 19.6311 6.87662 20.7021 7.63122 21.6271C8.41016 22.5521 9.31082 23.2824 10.3332 23.8179C11.3555 24.3291 12.4388 24.5847 13.5828 24.5847C14.7026 24.5847 15.7006 24.3291 16.5769 23.8179C17.4532 23.2824 18.1348 22.5521 18.6216 21.6271C19.1328 20.7021 19.3884 19.6311 19.3884 18.414Z" fill="white"/>
<path d="M28.3278 0.66864H34.4255V28.7837H28.3278V0.66864Z" fill="white"/>
<path d="M57.2085 28.7837L56.3321 21.1889L57.318 18.414L56.3321 15.6755L57.2085 8.00775H63.5252L62.3203 18.414L63.5252 28.7837H57.2085ZM58.815 18.414C58.4256 20.6047 57.7075 22.5278 56.6608 24.183C55.6384 25.8139 54.3361 27.0797 52.7539 27.9804C51.196 28.881 49.4434 29.3313 47.496 29.3313C45.4756 29.3313 43.6865 28.881 42.1286 27.9804C40.5707 27.0554 39.3536 25.7774 38.4773 24.1465C37.6253 22.4912 37.1993 20.5804 37.1993 18.414C37.1993 16.2232 37.6253 14.3123 38.4773 12.6814C39.3536 11.0262 40.5707 9.74821 42.1286 8.84755C43.6865 7.92256 45.4756 7.46006 47.496 7.46006C49.4434 7.46006 51.196 7.91039 52.7539 8.81104C54.3361 9.71169 55.6506 10.9896 56.6973 12.6449C57.744 14.2758 58.4499 16.1988 58.815 18.414ZM43.37 18.414C43.37 19.6311 43.6134 20.7021 44.1003 21.6271C44.6115 22.5521 45.3052 23.2824 46.1815 23.8179C47.0578 24.3291 48.068 24.5847 49.2121 24.5847C50.3562 24.5847 51.4272 24.3291 52.4253 23.8179C53.4476 23.2824 54.3483 22.5521 55.1272 21.6271C55.9062 20.7021 56.5147 19.6311 56.9529 18.414C56.5147 17.1969 55.9062 16.1258 55.1272 15.2008C54.3483 14.2515 53.4476 13.5212 52.4253 13.01C51.4272 12.4745 50.3562 12.2067 49.2121 12.2067C48.068 12.2067 47.0578 12.4745 46.1815 13.01C45.3052 13.5212 44.6115 14.2515 44.1003 15.2008C43.6134 16.1258 43.37 17.1969 43.37 18.414Z" fill="white"/>
<path d="M65.7768 8.00775H71.8744L73.1889 15.9311V28.7837H67.0912V15.0183L65.7768 8.00775ZM81.1122 7.46006C83.0839 7.46006 84.7635 7.8617 86.151 8.66499C87.5385 9.44393 88.5974 10.5637 89.3276 12.0242C90.0579 13.4847 90.423 15.2252 90.423 17.2455V28.7837H84.3254V18.1584C84.3254 16.284 83.875 14.8722 82.9744 13.9229C82.0737 12.9492 80.7592 12.4623 79.031 12.4623C77.8626 12.4623 76.828 12.7301 75.9274 13.2656C75.0511 13.7768 74.3695 14.4949 73.8826 15.4199C73.4201 16.3449 73.1889 17.4525 73.1889 18.7426L71.1807 17.6837C71.4241 15.4929 72.0083 13.6429 72.9333 12.1337C73.8583 10.6245 75.0267 9.46827 76.4385 8.66499C77.8504 7.8617 79.4083 7.46006 81.1122 7.46006Z" fill="white"/>
<path d="M113.011 28.7837L112.135 20.9334L113.303 18.4505L112.171 15.4199L113.814 0.66864H120.131L118.123 17.9758L119.328 28.7837H113.011ZM114.508 18.414C114.118 20.6047 113.4 22.5278 112.354 24.183C111.331 25.8139 110.029 27.0797 108.447 27.9804C106.889 28.881 105.136 29.3313 103.189 29.3313C101.168 29.3313 99.3794 28.881 97.8215 27.9804C96.2636 27.0554 95.0465 25.7774 94.1702 24.1465C93.3182 22.4912 92.8922 20.5804 92.8922 18.414C92.8922 16.2232 93.3182 14.3123 94.1702 12.6814C95.0465 11.0262 96.2636 9.74821 97.8215 8.84755C99.3794 7.92256 101.168 7.46006 103.189 7.46006C105.136 7.46006 106.889 7.91039 108.447 8.81104C110.029 9.71169 111.343 10.9896 112.39 12.6449C113.437 14.2758 114.143 16.1988 114.508 18.414ZM99.0629 18.414C99.0629 19.6311 99.3063 20.7021 99.7932 21.6271C100.304 22.5521 100.998 23.2824 101.874 23.8179C102.751 24.3291 103.761 24.5847 104.905 24.5847C106.049 24.5847 107.12 24.3291 108.118 23.8179C109.141 23.2824 110.041 22.5521 110.82 21.6271C111.599 20.7021 112.208 19.6311 112.646 18.414C112.208 17.1969 111.599 16.1258 110.82 15.2008C110.041 14.2515 109.141 13.5212 108.118 13.01C107.12 12.4745 106.049 12.2067 104.905 12.2067C103.761 12.2067 102.751 12.4745 101.874 13.01C100.998 13.5212 100.304 14.2515 99.7932 15.2008C99.3063 16.1258 99.0629 17.1969 99.0629 18.414Z" fill="white"/>
<path d="M125.302 29.1123C124.645 29.1123 124.036 28.954 123.476 28.6376C122.941 28.3212 122.515 27.8952 122.198 27.3596C121.882 26.7998 121.723 26.1912 121.723 25.534C121.723 24.8524 121.882 24.2439 122.198 23.7083C122.515 23.1485 122.941 22.7103 123.476 22.3939C124.036 22.0774 124.645 21.9192 125.302 21.9192C125.983 21.9192 126.592 22.0774 127.127 22.3939C127.687 22.7103 128.125 23.1485 128.442 23.7083C128.758 24.2439 128.917 24.8524 128.917 25.534C128.917 26.1912 128.758 26.7998 128.442 27.3596C128.125 27.8952 127.687 28.3212 127.127 28.6376C126.592 28.954 125.983 29.1123 125.302 29.1123Z" fill="white"/>
</svg>
