<svg width="12" height="12" viewBox="0 0 12 12" fill="none" xmlns="http://www.w3.org/2000/svg">
<path opacity="0.4" d="M6 11C8.76142 11 11 8.76142 11 6C11 3.23858 8.76142 1 6 1C3.23858 1 1 3.23858 1 6C1 8.76142 3.23858 11 6 11Z" fill="black"/>
<path d="M6.53018 5.99969L7.68018 4.84969C7.82518 4.70469 7.82518 4.46469 7.68018 4.31969C7.53518 4.17469 7.29518 4.17469 7.15018 4.31969L6.00018 5.46969L4.85018 4.31969C4.70518 4.17469 4.46518 4.17469 4.32018 4.31969C4.17518 4.46469 4.17518 4.70469 4.32018 4.84969L5.47018 5.99969L4.32018 7.14969C4.17518 7.29469 4.17518 7.53469 4.32018 7.67969C4.39518 7.75469 4.49018 7.78969 4.58518 7.78969C4.68018 7.78969 4.77518 7.75469 4.85018 7.67969L6.00018 6.52969L7.15018 7.67969C7.22518 7.75469 7.32018 7.78969 7.41518 7.78969C7.51018 7.78969 7.60518 7.75469 7.68018 7.67969C7.82518 7.53469 7.82518 7.29469 7.68018 7.14969L6.53018 5.99969Z" fill="black"/>
</svg>
