<svg width="60" height="61" viewBox="0 0 60 61" fill="none" xmlns="http://www.w3.org/2000/svg">
<rect width="60" height="61" rx="30" fill="#332A1C"/>
<path d="M25.6389 19L34.3353 19C37.2156 19 39.5505 21.9306 39.5505 24.3064L39.5505 24.3096C39.5505 27.2403 37.2155 29.6161 34.3353 29.6161L25.6389 29.6161C22.7585 29.6161 20.4236 26.6854 20.4236 24.3096L20.4236 24.3064C20.4236 21.3758 22.7586 19 25.6389 19Z" stroke="#FED18C" stroke-width="2.08822" stroke-miterlimit="10"/>
<path d="M30.2364 34.186L30.175 34.186C29.7517 34.186 29.4082 33.7552 29.4082 33.4058L29.4082 30.249C29.4082 29.8182 29.7515 29.4687 30.175 29.4687L30.2364 29.4687C30.6598 29.4687 31.0032 29.8995 31.0032 30.249L31.0032 33.4058C31.0032 33.8365 30.66 34.186 30.2364 34.186Z" fill="#FED18C"/>
<path d="M27.3794 24.4537C27.3794 25.0245 26.9247 25.4872 26.3636 25.4872C25.8026 25.4872 25.3477 25.0245 25.3477 24.4537C25.3477 23.8826 25.8026 23.4199 26.3636 23.4199C26.9247 23.4199 27.3794 23.8826 27.3794 24.4537Z" fill="#FED18C"/>
<path d="M34.772 24.6021C34.772 25.1729 34.3173 25.6356 33.756 25.6356C33.195 25.6356 32.7402 25.1729 32.7402 24.6021C32.7402 24.0313 33.195 23.5684 33.756 23.5684C34.3172 23.5684 34.772 24.0313 34.772 24.6021Z" fill="#FED18C"/>
<path d="M30 42C19 42 19 35.9727 19 35.9727C18.9967 35.4625 19.1916 34.9715 19.5426 34.6071C19.8935 34.2427 20.3719 34.0342 20.8734 34.0273L39.1009 34.0273C39.6067 34.0273 40.0918 34.2326 40.4482 34.5979C40.8047 34.963 41.0034 35.4579 41 35.9727C41 35.9727 40.9999 42 30 42Z" stroke="#FED18C" stroke-width="2.08822" stroke-miterlimit="10"/>
</svg>
