<svg width="155" height="35" viewBox="0 0 155 35" fill="none" xmlns="http://www.w3.org/2000/svg">
<g clip-path="url(#clip0_248_7226)">
<path d="M15.2073 15.7498V22.7731L30.4379 31.5231V24.5231L15.2073 15.7498Z" fill="white"/>
<path d="M30.4145 -0.00012207L30.4379 6.99988L15.2073 15.7499V8.74988L30.4145 -0.00012207Z" fill="white"/>
<path d="M-7.62939e-06 3.47644V10.4764L15.2073 19.2498V12.2264L-7.62939e-06 3.47644Z" fill="white"/>
<path d="M15.2073 19.2498V26.2498L-7.62939e-06 34.9998V27.9998L15.2073 19.2498Z" fill="white"/>
<path d="M61.1801 13.72V24.4533H57.2262V14.6533C57.2262 12.0867 55.8459 10.7333 53.5531 10.7333C51.2369 10.7333 49.6226 12.2733 49.6226 14.98V24.4766H45.6453V7.62999H49.0377L49.4822 9.77666C50.6754 8.18999 52.6173 7.20999 54.9802 7.20999C58.6066 7.18666 61.1801 9.86999 61.1801 13.72Z" fill="white"/>
<path d="M64.3619 16.0767C64.3619 10.9433 68.4328 7.16333 73.5799 7.16333C78.6802 7.16333 82.7043 10.8733 82.7043 16.0067C82.7043 21.1167 78.5866 24.92 73.5097 24.92C68.3626 24.92 64.3619 21.1867 64.3619 16.0767ZM78.7738 16.0533C78.7738 12.95 76.4576 10.6633 73.5565 10.6633C70.5852 10.6633 68.3158 12.95 68.3158 16.0533C68.3158 19.1567 70.5852 21.42 73.5565 21.42C76.4576 21.42 78.7738 19.1567 78.7738 16.0533Z" fill="white"/>
<path d="M111.388 13.58V24.4533H107.434V14.6067C107.434 12.0867 106.1 10.71 104.158 10.71C102.123 10.71 100.602 12.25 100.602 14.9333V24.4533H96.6248V14.6067C96.6248 12.0867 95.2913 10.71 93.3494 10.71C91.314 10.71 89.7933 12.25 89.7933 14.9333V24.4533H85.8394V7.62999H89.2084L89.6295 9.70666C90.7525 8.16666 92.5774 7.20999 94.7532 7.20999C97.046 7.20999 98.941 8.44666 99.9003 10.4533C100.976 8.46999 103.035 7.20999 105.539 7.20999C108.837 7.18666 111.388 9.79999 111.388 13.58Z" fill="white"/>
<path d="M134.128 16.0534C134.128 21.3034 130.291 24.8967 125.636 24.8967C123.109 24.8967 120.98 23.8234 119.553 21.98L119.108 24.4767H115.716V0.513366L119.693 0.116699V9.94003C121.12 8.21337 123.202 7.1867 125.682 7.1867C130.408 7.1867 134.128 10.85 134.128 16.0534ZM130.151 16.0534C130.151 12.9267 127.882 10.6634 125.004 10.6634C122.103 10.6634 119.693 12.95 119.693 16.0534C119.693 19.1567 122.103 21.42 125.004 21.42C127.882 21.42 130.151 19.18 130.151 16.0534Z" fill="white"/>
<path d="M151.067 7.62996H154.459V24.4766H151.067L150.622 21.9566C149.195 23.8233 147.066 24.8966 144.516 24.8966C139.86 24.8966 136.07 21.3266 136.07 16.0533C136.07 10.85 139.837 7.20996 144.563 7.20996C147.09 7.20996 149.219 8.28329 150.646 10.1266L151.067 7.62996ZM150.505 16.0533C150.505 12.95 148.096 10.6633 145.195 10.6633C142.317 10.6633 140.048 12.9033 140.048 16.0533C140.048 19.18 142.317 21.42 145.195 21.42C148.096 21.42 150.505 19.1566 150.505 16.0533Z" fill="white"/>
</g>
<defs>
<clipPath id="clip0_248_7226">
<rect width="154.483" height="35" fill="white"/>
</clipPath>
</defs>
</svg>
