<svg width="24" height="24" viewBox="0 0 24 24" fill="none" xmlns="http://www.w3.org/2000/svg">
<path opacity="0.4" d="M7.81 22L16.19 22C19.83 22 22 19.83 22 16.19L22 7.82C22 4.17 19.83 2 16.19 2L7.82 2C4.18 2 2.01 4.17 2.01 7.81L2.01 16.19C2 19.83 4.17 22 7.81 22Z" fill="#FED18C"/>
<path d="M13.2598 7.71984C13.4498 7.71984 13.6398 7.78984 13.7898 7.93984C14.0798 8.22984 14.0798 8.70984 13.7898 8.99984L10.7898 11.9998L13.7898 14.9998C14.0798 15.2898 14.0798 15.7698 13.7898 16.0598C13.4998 16.3498 13.0198 16.3498 12.7298 16.0598L9.19982 12.5298C8.90982 12.2398 8.90982 11.7598 9.19982 11.4698L12.7298 7.93984C12.8798 7.78984 13.0698 7.71984 13.2598 7.71984Z" fill="#FED18C"/>
</svg>
