<svg width="20" height="20" viewBox="0 0 20 20" fill="none" xmlns="http://www.w3.org/2000/svg">
<path d="M13.3333 6.66732C13.3333 4.82637 11.8409 3.33398 10 3.33398C8.15905 3.33398 6.66667 4.82637 6.66667 6.66732M17.5 9.33394V14.0006C17.5 14.934 17.5002 15.4008 17.3185 15.7573C17.1587 16.0709 16.9034 16.3258 16.5898 16.4856C16.2333 16.6673 15.7669 16.6673 14.8335 16.6673H5.16683C4.23341 16.6673 3.76635 16.6673 3.40983 16.4856C3.09623 16.3258 2.84144 16.0709 2.68166 15.7573C2.5 15.4008 2.5 14.934 2.5 14.0006V9.33394C2.5 8.40052 2.5 7.93387 2.68166 7.57735C2.84144 7.26375 3.09623 7.00876 3.40983 6.84897C3.76635 6.66732 4.23341 6.66732 5.16683 6.66732H14.8335C15.7669 6.66732 16.2333 6.66732 16.5898 6.84897C16.9034 7.00876 17.1587 7.26375 17.3185 7.57735C17.5002 7.93387 17.5 8.40052 17.5 9.33394Z" stroke="#FED18C" stroke-width="1.33333" stroke-linecap="round" stroke-linejoin="round"/>
</svg>
