<svg width="22" height="21" viewBox="0 0 22 21" fill="none" xmlns="http://www.w3.org/2000/svg">
<g clip-path="url(#clip0_248_7324)">
<path d="M10.5809 21C9.19864 21.0024 7.82958 20.7315 6.55243 20.2029C5.27529 19.6742 4.11525 18.8983 3.13905 17.9198C2.16285 16.9412 1.38976 15.7793 0.864229 14.5009C0.338698 13.2225 0.071105 11.8528 0.076842 10.4705C0.076842 4.66466 4.78568 -0.00267622 10.6391 1.15131e-06C16.4242 1.15131e-06 21.0809 4.73092 21.0768 10.5957C21.0715 16.3132 16.3439 20.9993 10.5809 21ZM4.89144 14.3066C4.94632 14.3427 4.9992 14.3829 5.05676 14.415C6.56948 15.249 8.17792 15.4712 9.86199 15.1345C12.9296 14.5221 15.2408 11.6881 15.2455 8.53815C15.2455 8.25502 15.291 8.04752 15.536 7.85408C15.8479 7.60776 16.1023 7.28848 16.3821 7.00067L16.3305 6.9498L15.1926 7.23895C15.5655 6.86546 15.9209 6.51338 16.0708 5.99732C15.6431 6.14859 15.2428 6.30589 14.8319 6.4257C14.7668 6.43863 14.6997 6.43787 14.635 6.42346C14.5702 6.40906 14.5092 6.38133 14.4557 6.34203C13.6351 5.66934 12.7408 5.52878 11.7783 5.97523C10.8774 6.39491 10.3727 7.31994 10.4396 8.34939C10.4457 8.45448 10.449 8.56024 10.455 8.69344C8.43494 8.54685 6.81312 7.69678 5.48916 6.18139C4.90951 7.44578 5.19398 8.4672 6.10496 9.4016L5.15716 9.15194C5.2569 10.3494 5.88006 11.093 6.97376 11.5368L6.03334 11.5843C6.42356 12.5683 7.16051 13.0776 8.24886 13.2242C7.20402 13.9966 6.10696 14.2945 4.89478 14.3032L4.89144 14.3066Z" fill="#838383"/>
</g>
<defs>
<clipPath id="clip0_248_7324">
<rect width="21" height="21" fill="white" transform="translate(0.0769043)"/>
</clipPath>
</defs>
</svg>
