<svg width="21" height="21" viewBox="0 0 21 21" fill="none" xmlns="http://www.w3.org/2000/svg">
<path opacity="0.4" d="M10.5 19.25C15.3325 19.25 19.25 15.3325 19.25 10.5C19.25 5.66751 15.3325 1.75 10.5 1.75C5.66751 1.75 1.75 5.66751 1.75 10.5C1.75 15.3325 5.66751 19.25 10.5 19.25Z" fill="#FED18C"/>
<path d="M9.25727 13.6325C9.08227 13.6325 8.91602 13.5625 8.79352 13.44L6.31727 10.9637C6.06352 10.71 6.06352 10.29 6.31727 10.0362C6.57102 9.7825 6.99102 9.7825 7.24477 10.0362L9.25727 12.0487L13.7548 7.55125C14.0085 7.2975 14.4285 7.2975 14.6823 7.55125C14.936 7.805 14.936 8.225 14.6823 8.47875L9.72102 13.44C9.59852 13.5625 9.43227 13.6325 9.25727 13.6325Z" fill="#FED18C"/>
</svg>
